# xmcd CD database file
#
# Track frame offsets:
#	150
#	18357
#	29212
#	57896
#	69512
#	93770
#	121954
#	142330
#	162640
#	192453
#	235951
#	257157
#	272323
#	300435
#
# Disc length: 4226 seconds
#
# Revision: 0
# Processed by: cddbd v1.5.2PL0 Copyright (c) Steve Scherf et al.
# Submitted via: CDex 1.70beta2
#
DISCID=c810800e
DTITLE=EMIプレミアム・ツイン・ベスト - ジャズ・スタンダード・ベスト_Disc2
DYEAR=2012
DGENRE=Jazz
TTITLE0=サマータイム (モノーラル録音)
TTITLE1=シェルブールの雨傘
TTITLE2=ジャスト・フレンズ
TTITLE3=マイ・ワン・アンド・オンリー・ラヴ (モノーラル録音)
TTITLE4=マイ・ファニー・ヴァレンタイン
TTITLE5=オール・ザ・シングス・ユー・アー
TTITLE6=ワン・ノート・サンバ
TTITLE7=ラヴァー・マン
TTITLE8=オールド・フォークス
TTITLE9=ストールン・モーメンツ
TTITLE10=ラメント
TTITLE11=ジャンゴ
TTITLE12=ウッディン・ユー (モノーラル録音)
TTITLE13=風と共に去りぬ (モノーラル録音)
EXTD=YEAR: 2012
EXTT0=
EXTT1=
EXTT2=
EXTT3=
EXTT4=
EXTT5=
EXTT6=
EXTT7=
EXTT8=
EXTT9=
EXTT10=
EXTT11=
EXTT12=
EXTT13=
PLAYORDER=
